<?xml version="1.0" standalone="no"?>
<!DOCTYPE svg PUBLIC "-//W3C//DTD SVG 20010904//EN"
 "http://www.w3.org/TR/2001/REC-SVG-20010904/DTD/svg10.dtd">
<svg version="1.0" xmlns="http://www.w3.org/2000/svg"
 width="500.000000pt" height="500.000000pt" viewBox="0 0 500.000000 500.000000"
 preserveAspectRatio="xMidYMid meet">

<g transform="translate(0.000000,500.000000) scale(0.100000,-0.100000)"
fill="#000000" stroke="none">
<path d="M2265 4986 c-487 -49 -930 -228 -1316 -531 -108 -85 -353 -335 -436
-446 -300 -400 -468 -854 -503 -1359 -10 -146 -1 -371 20 -490 6 -30 12 -66
14 -80 2 -14 7 -38 11 -55 4 -16 8 -34 9 -40 1 -5 10 -40 20 -78 l19 -67 1033
0 c569 0 1034 2 1034 5 0 22 184 593 194 604 19 18 49 7 67 -26 148 -258 224
-383 233 -383 19 0 113 47 164 81 113 77 245 214 316 328 38 60 76 164 76 207
0 46 16 74 40 74 26 0 107 -109 160 -215 49 -99 70 -186 70 -290 0 -121 -16
-172 -118 -377 -2 -5 341 -8 762 -8 421 0 766 2 766 3 0 2 9 39 21 83 52 194
71 355 71 579 0 844 -418 1614 -1132 2088 -229 152 -578 296 -852 352 -234 47
-523 63 -743 41z m116 -1146 c299 -72 554 -135 567 -140 12 -5 22 -18 22 -29
0 -11 -32 -129 -71 -263 -195 -666 -249 -842 -262 -855 -8 -9 -23 -12 -33 -9
-11 3 -65 87 -132 204 -62 109 -117 204 -121 211 -7 10 -22 7 -73 -17 -234
-112 -474 -398 -496 -592 -8 -69 -27 -94 -59 -74 -28 17 -98 121 -142 209
-106 211 -94 425 35 633 60 97 221 258 331 332 45 30 82 58 83 61 0 3 -52 95
-115 204 -63 110 -115 209 -115 221 0 20 10 31 31 33 4 1 251 -58 550 -129z"/>
<path d="M1912 3872 c1 -5 50 -90 107 -190 57 -100 101 -188 98 -195 -3 -8
-43 -39 -89 -70 -229 -153 -378 -330 -423 -504 -19 -74 -19 -203 0 -278 16
-61 80 -201 97 -211 5 -3 12 4 15 15 24 93 150 280 246 367 132 119 333 244
394 244 26 0 31 -8 153 -217 45 -79 85 -143 88 -143 11 0 293 943 285 951 -7
6 -619 156 -853 209 -52 12 -101 23 -108 26 -8 2 -12 0 -10 -4z"/>
<path d="M3280 2563 c0 -29 -55 -138 -111 -218 -123 -179 -426 -403 -531 -393
-29 3 -37 11 -71 73 -116 209 -161 285 -168 278 -5 -6 -80 -251 -135 -445 -5
-17 23 -18 495 -18 l501 0 31 43 c103 139 141 313 104 476 -25 110 -115 270
-115 204z"/>
<path d="M623 1813 c285 -2 749 -2 1030 0 282 1 49 2 -518 2 -566 0 -797 -1
-512 -2z"/>
<path d="M2498 1813 c139 -2 364 -2 500 0 136 1 22 2 -253 2 -275 0 -386 -1
-247 -2z"/>
<path d="M3733 1813 c213 -2 561 -2 775 0 213 1 38 2 -388 2 -426 0 -601 -1
-387 -2z"/>
</g>
</svg>
